<svg id="SvgjsSvg2089" width="930" height="664" xmlns="http://www.w3.org/2000/svg" version="1.1" xmlns:xlink="http://www.w3.org/1999/xlink" xmlns:svgjs="http://svgjs.com/svgjs"><defs id="SvgjsDefs2090"><pattern id="SvgjsPattern2101" x="0" y="0" width="80" height="24" patternUnits="userSpaceOnUse"><image id="SvgjsImage2102" xlink:href="https://www.processon.com/assets/images/designer/network/adsl.svg" width="80" height="24" preserveAspectRatio="none" crossOrigin="anonymous" x="0" y="0"></image></pattern><pattern id="SvgjsPattern2109" x="0" y="0" width="75" height="16" patternUnits="userSpaceOnUse"><image id="SvgjsImage2110" xlink:href="https://www.processon.com/assets/images/designer/network/ethernet.svg" width="75" height="16" preserveAspectRatio="none" crossOrigin="anonymous" x="0" y="0"></image></pattern><pattern id="SvgjsPattern2117" x="0" y="0" width="36" height="80" patternUnits="userSpaceOnUse"><image id="SvgjsImage2118" xlink:href="https://www.processon.com/assets/images/designer/network/server.svg" width="36" height="80" preserveAspectRatio="none" crossOrigin="anonymous" x="0" y="0"></image></pattern><pattern id="SvgjsPattern2125" x="0" y="0" width="77" height="65" patternUnits="userSpaceOnUse"><image id="SvgjsImage2126" xlink:href="https://www.processon.com/assets/images/designer/network/pc.svg" width="77" height="65" preserveAspectRatio="none" crossOrigin="anonymous" x="0" y="0"></image></pattern><pattern id="SvgjsPattern2133" x="0" y="0" width="80" height="58" patternUnits="userSpaceOnUse"><image id="SvgjsImage2134" xlink:href="https://www.processon.com/assets/images/designer/network/accessPoint.svg" width="80" height="58" preserveAspectRatio="none" crossOrigin="anonymous" x="0" y="0"></image></pattern><pattern id="SvgjsPattern2141" x="0" y="0" width="82.5" height="15" patternUnits="userSpaceOnUse"><image id="SvgjsImage2142" xlink:href="https://www.processon.com/assets/images/designer/network/hub.svg" width="82.5" height="15" preserveAspectRatio="none" crossOrigin="anonymous" x="0" y="0"></image></pattern><pattern id="SvgjsPattern2149" x="0" y="0" width="77" height="65" patternUnits="userSpaceOnUse"><image id="SvgjsImage2150" xlink:href="https://www.processon.com/assets/images/designer/network/pc.svg" width="77" height="65" preserveAspectRatio="none" crossOrigin="anonymous" x="0" y="0"></image></pattern><pattern id="SvgjsPattern2157" x="0" y="0" width="80" height="58" patternUnits="userSpaceOnUse"><image id="SvgjsImage2158" xlink:href="https://www.processon.com/assets/images/designer/network/accessPoint.svg" width="80" height="58" preserveAspectRatio="none" crossOrigin="anonymous" x="0" y="0"></image></pattern><pattern id="SvgjsPattern2165" x="0" y="0" width="82.5" height="15" patternUnits="userSpaceOnUse"><image id="SvgjsImage2166" xlink:href="https://www.processon.com/assets/images/designer/network/hub.svg" width="82.5" height="15" preserveAspectRatio="none" crossOrigin="anonymous" x="0" y="0"></image></pattern><marker id="SvgjsMarker2175" markerWidth="14" markerHeight="10" refX="10" refY="5" viewBox="0 0 14 10" orient="auto" markerUnits="userSpaceOnUse" stroke-dasharray="0,0"><path id="SvgjsPath2176" d="M0,0 L14,5 L0,10 L0,0" fill="#323232" stroke="#323232" stroke-width="1"></path></marker><marker id="SvgjsMarker2179" markerWidth="14" markerHeight="10" refX="10" refY="5" viewBox="0 0 14 10" orient="auto" markerUnits="userSpaceOnUse" stroke-dasharray="0,0"><path id="SvgjsPath2180" d="M0,0 L14,5 L0,10 L0,0" fill="#323232" stroke="#323232" stroke-width="1"></path></marker><marker id="SvgjsMarker2183" markerWidth="14" markerHeight="10" refX="10" refY="5" viewBox="0 0 14 10" orient="auto" markerUnits="userSpaceOnUse" stroke-dasharray="0,0"><path id="SvgjsPath2184" d="M0,0 L14,5 L0,10 L0,0" fill="#323232" stroke="#323232" stroke-width="1"></path></marker><pattern id="SvgjsPattern2187" x="0" y="0" width="78" height="65" patternUnits="userSpaceOnUse"><image id="SvgjsImage2188" xlink:href="https://www.processon.com/assets/images/designer/network/monitor.svg" width="78" height="65" preserveAspectRatio="none" crossOrigin="anonymous" x="0" y="0"></image></pattern><marker id="SvgjsMarker2195" markerWidth="14" markerHeight="10" refX="10" refY="5" viewBox="0 0 14 10" orient="auto" markerUnits="userSpaceOnUse" stroke-dasharray="0,0"><path id="SvgjsPath2196" d="M0,0 L14,5 L0,10 L0,0" fill="#323232" stroke="#323232" stroke-width="1"></path></marker><pattern id="SvgjsPattern2199" x="0" y="0" width="78" height="65" patternUnits="userSpaceOnUse"><image id="SvgjsImage2200" xlink:href="https://www.processon.com/assets/images/designer/network/monitor.svg" width="78" height="65" preserveAspectRatio="none" crossOrigin="anonymous" x="0" y="0"></image></pattern><marker id="SvgjsMarker2207" markerWidth="14" markerHeight="10" refX="10" refY="5" viewBox="0 0 14 10" orient="auto" markerUnits="userSpaceOnUse" stroke-dasharray="0,0"><path id="SvgjsPath2208" d="M0,0 L14,5 L0,10 L0,0" fill="#323232" stroke="#323232" stroke-width="1"></path></marker><marker id="SvgjsMarker2223" markerWidth="14" markerHeight="10" refX="10" refY="5" viewBox="0 0 14 10" orient="auto" markerUnits="userSpaceOnUse" stroke-dasharray="0,0"><path id="SvgjsPath2224" d="M0,0 L14,5 L0,10 L0,0" fill="#323232" stroke="#323232" stroke-width="1"></path></marker><pattern id="SvgjsPattern2231" x="0" y="0" width="67" height="80" patternUnits="userSpaceOnUse"><image id="SvgjsImage2232" xlink:href="https://www.processon.com/assets/images/designer/network/isp.svg" width="67" height="80" preserveAspectRatio="none" crossOrigin="anonymous" x="0" y="0"></image></pattern><marker id="SvgjsMarker2239" markerWidth="14" markerHeight="10" refX="10" refY="5" viewBox="0 0 14 10" orient="auto" markerUnits="userSpaceOnUse" stroke-dasharray="0,0"><path id="SvgjsPath2240" d="M0,0 L14,5 L0,10 L0,0" fill="#323232" stroke="#323232" stroke-width="1"></path></marker><pattern id="SvgjsPattern2243" x="0" y="0" width="75" height="75" patternUnits="userSpaceOnUse"><image id="SvgjsImage2244" xlink:href="https://www.processon.com/assets/images/designer/network/globe.svg" width="75" height="75" preserveAspectRatio="none" crossOrigin="anonymous" x="0" y="0"></image></pattern><marker id="SvgjsMarker2251" markerWidth="14" markerHeight="10" refX="10" refY="5" viewBox="0 0 14 10" orient="auto" markerUnits="userSpaceOnUse" stroke-dasharray="0,0"><path id="SvgjsPath2252" d="M0,0 L14,5 L0,10 L0,0" fill="#323232" stroke="#323232" stroke-width="1"></path></marker><marker id="SvgjsMarker2261" markerWidth="14" markerHeight="10" refX="10" refY="5" viewBox="0 0 14 10" orient="auto" markerUnits="userSpaceOnUse" stroke-dasharray="0,0"><path id="SvgjsPath2262" d="M0,0 L14,5 L0,10 L0,0" fill="#323232" stroke="#323232" stroke-width="1"></path></marker><marker id="SvgjsMarker2265" markerWidth="14" markerHeight="10" refX="10" refY="5" viewBox="0 0 14 10" orient="auto" markerUnits="userSpaceOnUse" stroke-dasharray="0,0"><path id="SvgjsPath2266" d="M0,0 L14,5 L0,10 L0,0" fill="#323232" stroke="#323232" stroke-width="1"></path></marker><marker id="SvgjsMarker2269" markerWidth="14" markerHeight="10" refX="10" refY="5" viewBox="0 0 14 10" orient="auto" markerUnits="userSpaceOnUse" stroke-dasharray="0,0"><path id="SvgjsPath2270" d="M0,0 L14,5 L0,10 L0,0" fill="#323232" stroke="#323232" stroke-width="1"></path></marker><marker id="SvgjsMarker2273" markerWidth="14" markerHeight="10" refX="10" refY="5" viewBox="0 0 14 10" orient="auto" markerUnits="userSpaceOnUse" stroke-dasharray="0,0"><path id="SvgjsPath2274" d="M0,0 L14,5 L0,10 L0,0" fill="#323232" stroke="#323232" stroke-width="1"></path></marker></defs><g id="SvgjsG2091" transform="translate(264,389)"><path id="SvgjsPath2092" d="M 0 0L 641.75 0L 641.75 249L 0 249Z" stroke="rgba(50,50,50,1)" stroke-width="2" fill-opacity="1" fill="#ffffff"></path><g id="SvgjsG2093"><text id="SvgjsText2094" font-family="微软雅黑" text-anchor="middle" font-size="13px" width="622px" fill="#323232" font-weight="400" align="middle" lineHeight="125%" anchor="middle" family="微软雅黑" size="13px" weight="400" font-style="" opacity="1" y="114.875" transform="rotate(0)"></text></g></g><g id="SvgjsG2095" transform="translate(264,25.000000000000014)"><path id="SvgjsPath2096" d="M 0 0L 641.75 0L 641.75 355.25L 0 355.25Z" stroke="rgba(50,50,50,1)" stroke-width="2" fill-opacity="1" fill="#ffffff"></path><g id="SvgjsG2097"><text id="SvgjsText2098" font-family="微软雅黑" text-anchor="middle" font-size="13px" width="622px" fill="#323232" font-weight="400" align="middle" lineHeight="125%" anchor="middle" family="微软雅黑" size="13px" weight="400" font-style="" opacity="1" y="168" transform="rotate(0)"></text></g></g><g id="SvgjsG2099" transform="translate(309.5000000000001,77.49999999999993)"><path id="SvgjsPath2100" d="M 0 0L 80 0L 80 24L 0 24Z" stroke="none" fill="url(#SvgjsPattern2101)"></path><g id="SvgjsG2103"><text id="SvgjsText2104" font-family="微软雅黑" text-anchor="middle" font-size="13px" width="120px" fill="#323232" font-weight="400" align="middle" lineHeight="125%" anchor="middle" family="微软雅黑" size="13px" weight="400" font-style="" opacity="1" y="29.375" transform="rotate(0)"><tspan id="SvgjsTspan2105" dy="16" x="40"><tspan id="SvgjsTspan2106" style="text-decoration:;">光猫</tspan></tspan></text></g></g><g id="SvgjsG2107" transform="translate(312.0000000000001,310.5)"><path id="SvgjsPath2108" d="M 0 0L 75 0L 75 16L 0 16Z" stroke="none" fill="url(#SvgjsPattern2109)"></path><g id="SvgjsG2111"><text id="SvgjsText2112" font-family="微软雅黑" text-anchor="middle" font-size="13px" width="115px" fill="#323232" font-weight="400" align="middle" lineHeight="125%" anchor="middle" family="微软雅黑" size="13px" weight="400" font-style="" opacity="1" y="21.375" transform="rotate(0)"><tspan id="SvgjsTspan2113" dy="16" x="37.5"><tspan id="SvgjsTspan2114" style="text-decoration:;">3865U软路由</tspan></tspan></text></g></g><g id="SvgjsG2115" transform="translate(668.75,168)"><path id="SvgjsPath2116" d="M 0 0L 36 0L 36 80L 0 80Z" stroke="none" fill="url(#SvgjsPattern2117)"></path><g id="SvgjsG2119"><text id="SvgjsText2120" font-family="微软雅黑" text-anchor="middle" font-size="13px" width="76px" fill="#323232" font-weight="400" align="middle" lineHeight="125%" anchor="middle" family="微软雅黑" size="13px" weight="400" font-style="" opacity="1" y="85.375" transform="rotate(0)"><tspan id="SvgjsTspan2121" dy="16" x="18"><tspan id="SvgjsTspan2122" style="text-decoration:;">6盘位NAS</tspan></tspan></text></g></g><g id="SvgjsG2123" transform="translate(648.25,57.000000000000014)"><path id="SvgjsPath2124" d="M 0 0L 77 0L 77 65L 0 65Z" stroke="none" fill="url(#SvgjsPattern2125)"></path><g id="SvgjsG2127"><text id="SvgjsText2128" font-family="微软雅黑" text-anchor="middle" font-size="13px" width="117px" fill="#323232" font-weight="400" align="middle" lineHeight="125%" anchor="middle" family="微软雅黑" size="13px" weight="400" font-style="" opacity="1" y="70.375" transform="rotate(0)"><tspan id="SvgjsTspan2129" dy="16" x="38.5"><tspan id="SvgjsTspan2130" style="text-decoration:;">台式机</tspan></tspan></text></g></g><g id="SvgjsG2131" transform="translate(452.75,393.5)"><path id="SvgjsPath2132" d="M 0 0L 80 0L 80 58L 0 58Z" stroke="none" fill="url(#SvgjsPattern2133)"></path><g id="SvgjsG2135"><text id="SvgjsText2136" font-family="微软雅黑" text-anchor="middle" font-size="13px" width="120px" fill="#323232" font-weight="400" align="middle" lineHeight="125%" anchor="middle" family="微软雅黑" size="13px" weight="400" font-style="" opacity="1" y="63.375" transform="rotate(0)"><tspan id="SvgjsTspan2137" dy="16" x="40"><tspan id="SvgjsTspan2138" style="text-decoration:;">网件R7000</tspan></tspan></text></g></g><g id="SvgjsG2139" transform="translate(441.25,526.5)"><path id="SvgjsPath2140" d="M 0 0L 82.5 0L 82.5 15L 0 15Z" stroke="none" fill="url(#SvgjsPattern2141)"></path><g id="SvgjsG2143"><text id="SvgjsText2144" font-family="微软雅黑" text-anchor="middle" font-size="13px" width="123px" fill="#323232" font-weight="400" align="middle" lineHeight="125%" anchor="middle" family="微软雅黑" size="13px" weight="400" font-style="" opacity="1" y="20.375" transform="rotate(0)"><tspan id="SvgjsTspan2145" dy="16" x="41.5"><tspan id="SvgjsTspan2146" style="text-decoration:;">交换机</tspan></tspan></text></g></g><g id="SvgjsG2147" transform="translate(668.75,404)"><path id="SvgjsPath2148" d="M 0 0L 77 0L 77 65L 0 65Z" stroke="none" fill="url(#SvgjsPattern2149)"></path><g id="SvgjsG2151"><text id="SvgjsText2152" font-family="微软雅黑" text-anchor="middle" font-size="13px" width="117px" fill="#323232" font-weight="400" align="middle" lineHeight="125%" anchor="middle" family="微软雅黑" size="13px" weight="400" font-style="" opacity="1" y="70.375" transform="rotate(0)"><tspan id="SvgjsTspan2153" dy="16" x="38.5"><tspan id="SvgjsTspan2154" style="text-decoration:;">台式机</tspan></tspan></text></g></g><g id="SvgjsG2155" transform="translate(460.5,77.49999999999994)"><path id="SvgjsPath2156" d="M 0 0L 80 0L 80 58L 0 58Z" stroke="none" fill="url(#SvgjsPattern2157)"></path><g id="SvgjsG2159"><text id="SvgjsText2160" font-family="微软雅黑" text-anchor="middle" font-size="13px" width="120px" fill="#323232" font-weight="400" align="middle" lineHeight="125%" anchor="middle" family="微软雅黑" size="13px" weight="400" font-style="" opacity="1" y="63.375" transform="rotate(0)"><tspan id="SvgjsTspan2161" dy="16" x="40"><tspan id="SvgjsTspan2162" style="text-decoration:;">网件R7000</tspan></tspan></text></g></g><g id="SvgjsG2163" transform="translate(459.25,211.99999999999994)"><path id="SvgjsPath2164" d="M 0 0L 82.5 0L 82.5 15L 0 15Z" stroke="none" fill="url(#SvgjsPattern2165)"></path><g id="SvgjsG2167"><text id="SvgjsText2168" font-family="微软雅黑" text-anchor="middle" font-size="13px" width="123px" fill="#323232" font-weight="400" align="middle" lineHeight="125%" anchor="middle" family="微软雅黑" size="13px" weight="400" font-style="" opacity="1" y="12.375" transform="rotate(0)"><tspan id="SvgjsTspan2169" dy="16" x="41.5"><tspan id="SvgjsTspan2170" style="text-decoration:;"> </tspan></tspan><tspan id="SvgjsTspan2171" dy="16" x="41.5"><tspan id="SvgjsTspan2172" style="text-decoration:;">交换机</tspan></tspan></text></g></g><g id="SvgjsG2173"><path id="SvgjsPath2174" d="M541.75 219.49999999999994L595 219.49999999999994L595 89.5L645.6500000000001 89.5" stroke="#323232" stroke-width="2" fill="none" marker-end="url(#SvgjsMarker2175)"></path></g><g id="SvgjsG2177"><path id="SvgjsPath2178" d="M541.75 219.49999999999994L605.5 219.49999999999994L605.5 219L666.6500000000001 219" stroke="#323232" stroke-width="2" fill="none" marker-end="url(#SvgjsMarker2179)"></path></g><g id="SvgjsG2181"><path id="SvgjsPath2182" d="M523.75 534L596.25 534L596.25 436.5000000000001L666.1500000000001 436.5000000000001" stroke="#323232" stroke-width="2" fill="none" marker-end="url(#SvgjsMarker2183)"></path></g><g id="SvgjsG2185" transform="translate(648.25,286)"><path id="SvgjsPath2186" d="M 0 0L 78 0L 78 65L 0 65Z" stroke="none" fill="url(#SvgjsPattern2187)"></path><g id="SvgjsG2189"><text id="SvgjsText2190" font-family="微软雅黑" text-anchor="middle" font-size="13px" width="118px" fill="#323232" font-weight="400" align="middle" lineHeight="125%" anchor="middle" family="微软雅黑" size="13px" weight="400" font-style="" opacity="1" y="70.375" transform="rotate(0)"><tspan id="SvgjsTspan2191" dy="16" x="39"><tspan id="SvgjsTspan2192" style="text-decoration:;">投影仪</tspan></tspan></text></g></g><g id="SvgjsG2193"><path id="SvgjsPath2194" d="M541.75 219.49999999999994L595 219.49999999999994L595 318.5L645.6500000000001 318.5" stroke="#323232" stroke-width="2" fill="none" marker-end="url(#SvgjsMarker2195)"></path></g><g id="SvgjsG2197" transform="translate(668.25,541.5)"><path id="SvgjsPath2198" d="M 0 0L 78 0L 78 65L 0 65Z" stroke="none" fill="url(#SvgjsPattern2199)"></path><g id="SvgjsG2201"><text id="SvgjsText2202" font-family="微软雅黑" text-anchor="middle" font-size="13px" width="118px" fill="#323232" font-weight="400" align="middle" lineHeight="125%" anchor="middle" family="微软雅黑" size="13px" weight="400" font-style="" opacity="1" y="70.375" transform="rotate(0)"><tspan id="SvgjsTspan2203" dy="16" x="39"><tspan id="SvgjsTspan2204" style="text-decoration:;">电视</tspan></tspan></text></g></g><g id="SvgjsG2205"><path id="SvgjsPath2206" d="M523.75 534L596 534L596 574L665.6500000000001 574" stroke="#323232" stroke-width="2" fill="none" marker-end="url(#SvgjsMarker2207)"></path></g><g id="SvgjsG2209" transform="translate(227,599)"><path id="SvgjsPath2210" d="M 0 0L 120 0L 120 40L 0 40Z" stroke="none" fill="none"></path><g id="SvgjsG2211"><text id="SvgjsText2212" font-family="微软雅黑" text-anchor="middle" font-size="13px" width="120px" fill="#323232" font-weight="400" align="middle" lineHeight="125%" anchor="middle" family="微软雅黑" size="13px" weight="400" font-style="" opacity="1" y="10.375" transform="rotate(0)"><tspan id="SvgjsTspan2213" dy="16" x="60"><tspan id="SvgjsTspan2214" style="text-decoration:;">二楼</tspan></tspan></text></g></g><g id="SvgjsG2215" transform="translate(227,342.5)"><path id="SvgjsPath2216" d="M 0 0L 120 0L 120 40L 0 40Z" stroke="none" fill="none"></path><g id="SvgjsG2217"><text id="SvgjsText2218" font-family="微软雅黑" text-anchor="middle" font-size="13px" width="120px" fill="#323232" font-weight="400" align="middle" lineHeight="125%" anchor="middle" family="微软雅黑" size="13px" weight="400" font-style="" opacity="1" y="10.375" transform="rotate(0)"><tspan id="SvgjsTspan2219" dy="16" x="60"><tspan id="SvgjsTspan2220" style="text-decoration:;">三楼</tspan></tspan></text></g></g><g id="SvgjsG2221"><path id="SvgjsPath2222" d="M389.5000000000001 89.49999999999994L419.5000000000001 89.49999999999994L419.5000000000001 187.99999999999997L282.0000000000001 187.99999999999997L282.0000000000001 318.5L309.4000000000001 318.5" stroke="#323232" stroke-width="2" fill="none" marker-end="url(#SvgjsMarker2223)"></path><rect id="SvgjsRect2225" width="26" height="16" x="323.0500000000002" y="179.99999999999997" fill="#ffffff"></rect><text id="SvgjsText2226" font-family="微软雅黑" text-anchor="middle" font-size="13px" width="26px" fill="#323232" font-weight="400" align="top" lineHeight="16px" anchor="middle" family="微软雅黑" size="13px" weight="400" font-style="" opacity="1" y="178.37499999999997" transform="rotate(0)"><tspan id="SvgjsTspan2227" dy="16" x="336.0500000000002"><tspan id="SvgjsTspan2228" style="text-decoration:;">桥接</tspan></tspan></text></g><g id="SvgjsG2229" transform="translate(119.75,49.49999999999994)"><path id="SvgjsPath2230" d="M 0 0L 67 0L 67 80L 0 80Z" stroke="none" fill="url(#SvgjsPattern2231)"></path><g id="SvgjsG2233"><text id="SvgjsText2234" font-family="微软雅黑" text-anchor="middle" font-size="13px" width="107px" fill="#323232" font-weight="400" align="middle" lineHeight="125%" anchor="middle" family="微软雅黑" size="13px" weight="400" font-style="" opacity="1" y="85.375" transform="rotate(0)"><tspan id="SvgjsTspan2235" dy="16" x="33.5"><tspan id="SvgjsTspan2236" style="text-decoration:;">电信500M宽带</tspan></tspan></text></g></g><g id="SvgjsG2237"><path id="SvgjsPath2238" d="M186.75 89.49999999999983L248.125 89.49999999999983L248.125 89.49999999999994L306.9000000000001 89.49999999999994" stroke="#323232" stroke-width="2" fill="none" marker-end="url(#SvgjsMarker2239)"></path></g><g id="SvgjsG2241" transform="translate(115.75,451.5)"><path id="SvgjsPath2242" d="M 0 0L 75 0L 75 75L 0 75Z" stroke="none" fill="url(#SvgjsPattern2243)"></path><g id="SvgjsG2245"><text id="SvgjsText2246" font-family="微软雅黑" text-anchor="middle" font-size="13px" width="115px" fill="#323232" font-weight="400" align="middle" lineHeight="125%" anchor="middle" family="微软雅黑" size="13px" weight="400" font-style="" opacity="1" y="80.375" transform="rotate(0)"><tspan id="SvgjsTspan2247" dy="16" x="37.5"><tspan id="SvgjsTspan2248" style="text-decoration:;">互联网</tspan></tspan></text></g></g><g id="SvgjsG2249"><path id="SvgjsPath2250" d="M119.75 89.49999999999994L85.75 89.49999999999994L85.75 489L113.14999999999998 489" stroke="#323232" stroke-width="2" fill="none" marker-end="url(#SvgjsMarker2251)"></path></g><g id="SvgjsG2253" transform="translate(25,286.5)"><path id="SvgjsPath2254" d="M 0 0L 120 0L 120 40L 0 40Z" stroke="none" fill="none"></path><g id="SvgjsG2255"><text id="SvgjsText2256" font-family="微软雅黑" text-anchor="middle" font-size="13px" width="120px" fill="#f5f5f5" font-weight="400" align="middle" lineHeight="125%" anchor="middle" family="微软雅黑" size="13px" weight="400" font-style="" opacity="1" y="10.375" transform="rotate(0)"><tspan id="SvgjsTspan2257" dy="16" x="60"><tspan id="SvgjsTspan2258" style="text-decoration:;">夜色镇歌</tspan></tspan></text></g></g><g id="SvgjsG2259"><path id="SvgjsPath2260" d="M387.0000000000001 318.5L414.125 318.5L414.125 534L438.65 534" stroke="#323232" stroke-width="2" fill="none" marker-end="url(#SvgjsMarker2261)"></path></g><g id="SvgjsG2263"><path id="SvgjsPath2264" d="M349.5000000000001 310.5L349.5000000000001 219.49999999999994L456.65 219.49999999999994" stroke="#323232" stroke-width="2" fill="none" marker-end="url(#SvgjsMarker2265)"></path></g><g id="SvgjsG2267"><path id="SvgjsPath2268" d="M482.5 526.5L482.5 496.5L562.5 496.5L562.5 441L535.1 441" stroke="#323232" stroke-width="2" fill="none" marker-end="url(#SvgjsMarker2269)"></path></g><g id="SvgjsG2271"><path id="SvgjsPath2272" d="M500.5 211.99999999999994L500.5 181.99999999999994L569.5038053019083 181.99999999999994L569.5038053019083 125.91284425725235L542.1038053019083 125.91284425725235" stroke="#323232" stroke-width="2" fill="none" marker-end="url(#SvgjsMarker2273)"></path></g></svg>